#!OML:ASF G:\JayActor3\Patient Classification 1\Patient 1\Session 6\male.ASF
:FULLY-SPECIFIED
:DEGREES
879
root 10.4641 16.037 -1.03724 -9.94722 -68.202 5.04424
lowerback 1.65656 -2.56233 -2.47704
upperback -1.1933 -3.50094 -0.709612
thorax -2.04844 -1.71936 0.773189
lowerneck 0.694844 -8.66935 -6.74857
upperneck 15.1075 -12.12 1.99164
head 4.97762 -6.33952 1.14274
rclavicle 2.22794e-014 -7.11898e-015
rhumerus -31.6052 -8.80572 -78.7064
rradius 19.3187
rwrist 15.7158
rhand -7.71538 -7.89934
rfingers 7.12502
rthumb 18.1827 -37.0695
lclavicle 2.22794e-014 -7.11898e-015
lhumerus -34.43 18.3749 74.276
lradius 31.3559
lwrist 20.524
lhand -12.4115 19.0312
lfingers 7.12502
lthumb 13.6604 48.5629
rfemur -19.2295 -1.1583 14.8863
rtibia 61.9702
rfoot -20.1423 -6.80053
rtoes -17.9814
lfemur -2.28236 27.1908 -21.5242
ltibia 26.5632
lfoot -17.2261 -16.7
ltoes 11.5546
880
root 10.4472 16.0337 -1.01996 -9.90556 -68.2576 5.07158
lowerback 1.58733 -2.60077 -2.45122
upperback -1.22259 -3.55085 -0.739819
thorax -2.04164 -1.74494 0.726805
lowerneck 0.750523 -8.75738 -6.83257
upperneck 15.1217 -12.2456 2.00504
head 4.98512 -6.40631 1.15408
rclavicle -2.19789e-014 1.44119e-015
rhumerus -31.7151 -8.88137 -78.7168
rradius 19.3282
rwrist 15.6043
rhand -7.66076 -7.9094
rfingers 7.12502
rthumb 18.2352 -37.0746
lclavicle -2.19789e-014 1.44119e-015
lhumerus -34.2929 18.3923 74.2237
lradius 31.1309
lwrist 20.3473
lhand -12.402 19.0272
lfingers 7.12502
lthumb 13.6696 48.5583
rfemur -19.4786 -0.913462 14.8737
rtibia 61.2154
rfoot -20.9532 -7.61955
rtoes -18.2561
lfemur -2.2474 27.4758 -21.4876
ltibia 26.5799
lfoot -17.2588 -17.0156
ltoes 11.7963
881
root 10.4302 16.03 -1.00295 -9.83646 -68.2971 5.07758
lowerback 1.52248 -2.64081 -2.42355
upperback -1.2594 -3.60305 -0.762989
thorax -2.04474 -1.77147 0.687043
lowerneck 0.796314 -8.85679 -6.91574
upperneck 15.1348 -12.3854 2.01428
head 4.99446 -6.47997 1.16266
rclavicle 5.44785e-015 -1.28006e-014
rhumerus -31.8385 -8.9136 -78.735
rradius 19.3602
rwrist 15.4483
rhand -7.59455 -7.92872
rfingers 7.12502
rthumb 18.2989 -37.088
lclavicle 5.44785e-015 -1.28006e-014
lhumerus -34.1772 18.4647 74.1668
lradius 30.8917
lwrist 20.1455
lhand -12.3776 19.0106
lfingers 7.12502
lthumb 13.6931 48.5401
rfemur -19.681 -0.650628 14.8728
rtibia 60.357
rfoot -21.6756 -8.32904
rtoes -18.2395
lfemur -2.23814 27.6799 -21.4702
ltibia 26.6176
lfoot -17.3359 -17.2221
ltoes 11.9386
882
root 10.4129 16.0263 -0.986757 -9.76066 -68.3169 5.08523
lowerback 1.46097 -2.68261 -2.41328
upperback -1.30074 -3.65813 -0.779349
thorax -2.05288 -1.79905 0.664228
lowerneck 0.830171 -8.96836 -6.99649
upperneck 15.1407 -12.54 2.02137
head 5.00409 -6.56043 1.16885
rclavicle 2.06639e-014 9.81189e-015
rhumerus -31.9657 -8.90816 -78.7594
rradius 19.4078
rwrist 15.2624
rhand -7.5219 -7.95418
rfingers 7.12502
rthumb 18.3688 -37.1069
lclavicle 2.06639e-014 9.81189e-015
lhumerus -34.082 18.583 74.1126
lradius 30.6515
lwrist 19.9347
lhand -12.3533 18.9972
lfingers 7.12502
lthumb 13.7165 48.5251
rfemur -19.8476 -0.368973 14.874
rtibia 59.415
rfoot -22.3118 -8.90572
rtoes -18.0756
lfemur -2.25611 27.8153 -21.477
ltibia 26.6748
lfoot -17.4419 -17.3447
ltoes 12.0245
883
root 10.3954 16.0226 -0.971694 -9.69462 -68.3174 5.11217
lowerback 1.40767 -2.72805 -2.43188
upperback -1.35075 -3.71914 -0.789842
thorax -2.07226 -1.82893 0.664239
lowerneck 0.860674 -9.08834 -7.07187
upperneck 15.1345 -12.7048 2.02475
head 5.01059 -6.64545 1.17259
rclavicle -5.65869e-014 -4.78947e-015
rhumerus -32.103 -8.87648 -78.7858
rradius 19.47
rwrist 15.0612
rhand -7.45632 -7.98402
rfingers 7.12502
rthumb 18.4319 -37.1308
lclavicle -5.65869e-014 -4.78947e-015
lhumerus -34.0257 18.726 74.0623
lradius 30.4289
lwrist 19.7476
lhand -12.3344 19.0012
lfingers 7.12502
lthumb 13.7347 48.5279
rfemur -19.9834 -0.0662881 14.8696
rtibia 58.4062
rfoot -22.8547 -9.36002
rtoes -17.8922
lfemur -2.30105 27.9023 -21.5097
ltibia 26.7504
lfoot -17.5681 -17.4058
ltoes 12.0905
884
root 10.3775 16.0187 -0.957991 -9.63428 -68.2963 5.15028
lowerback 1.36724 -2.77888 -2.48012
upperback -1.40988 -3.78861 -0.793687
thorax -2.10568 -1.86229 0.688634
lowerneck 0.888651 -9.21178 -7.15868
upperneck 15.1241 -12.8758 2.04445
head 5.01845 -6.73312 1.18238
rclavicle -2.3768e-014 -7.52897e-015
rhumerus -32.2486 -8.83961 -78.8062
rradius 19.537
rwrist 14.8752
rhand -7.39529 -8.01181
rfingers 7.12502
rthumb 18.4906 -37.153
lclavicle -2.3768e-014 -7.52897e-015
lhumerus -34.0157 18.8759 74.019
lradius 30.235
lwrist 19.6035
lhand -12.3242 19.0071
lfingers 7.12502
lthumb 13.7445 48.5331
rfemur -20.0863 0.256025 14.8619
rtibia 57.3446
rfoot -23.3081 -9.65956
rtoes -17.6623
lfemur -2.36613 27.9511 -21.5588
ltibia 26.8407
lfoot -17.7061 -17.4224
ltoes 12.0773
